<svg xmlns="http://www.w3.org/2000/svg" xmlns:xlink="http://www.w3.org/1999/xlink" width="500" zoomAndPan="magnify" viewBox="0 0 375 374.999991" height="500" preserveAspectRatio="xMidYMid meet" version="1.0"><defs><clipPath id="id1"><path d="M 77 104 L 298 104 L 298 272.625 L 77 272.625 Z M 77 104 " clip-rule="nonzero"/></clipPath></defs><rect x="-37.5" width="450" fill="rgb(100%, 100%, 100%)" y="-37.499999" height="449.999989" fill-opacity="1"/><rect x="-37.5" width="450" fill="rgb(100%, 100%, 100%)" y="-37.499999" height="449.999989" fill-opacity="1"/><rect x="-37.5" width="450" fill="rgb(100%, 100%, 100%)" y="-37.499999" height="449.999989" fill-opacity="1"/><rect x="-37.5" width="450" fill="rgb(100%, 100%, 100%)" y="-37.499999" height="449.999989" fill-opacity="1"/><g clip-path="url(#id1)"><path fill="rgb(0%, 50.19989%, 21.569824%)" d="M 156.140625 213.101562 L 123.554688 180.550781 C 112.855469 169.882812 103.992188 167.445312 97.472656 169.472656 C 94.855469 170.292969 92.570312 171.851562 90.675781 173.859375 C 88.726562 175.945312 87.164062 178.5625 86.070312 181.425781 C 83.082031 189.246094 83.628906 198.609375 88.84375 203.835938 L 137.242188 252.164062 C 146.515625 261.445312 152.78125 266.070312 158.5625 266.070312 C 164.359375 266.070312 170.625 261.425781 179.898438 252.164062 L 285.914062 146.265625 C 291.125 141.058594 291.671875 131.695312 288.683594 123.875 C 287.59375 121.007812 286.03125 118.394531 284.078125 116.308594 C 282.183594 114.28125 279.898438 112.738281 277.265625 111.921875 C 270.742188 109.871094 261.878906 112.308594 251.199219 122.996094 L 158.5625 215.539062 L 156.121094 213.101562 Z M 128.417969 175.695312 L 158.5625 205.824219 L 246.339844 118.140625 C 259.164062 105.308594 270.527344 102.617188 279.3125 105.367188 C 283.121094 106.558594 286.382812 108.761719 289.074219 111.628906 C 291.671875 114.417969 293.722656 117.789062 295.109375 121.4375 C 298.972656 131.539062 297.980469 143.90625 290.753906 151.121094 L 184.761719 257.019531 C 174.140625 267.628906 166.585938 272.933594 158.5625 272.933594 L 158.5625 272.914062 C 150.535156 272.914062 142.980469 267.609375 132.378906 257.019531 L 83.980469 208.691406 C 76.777344 201.476562 75.78125 189.113281 79.648438 178.988281 C 81.03125 175.363281 83.082031 171.96875 85.679688 169.199219 C 88.375 166.332031 91.632812 164.109375 95.441406 162.9375 C 104.226562 160.1875 115.589844 162.878906 128.417969 175.695312 " fill-opacity="1" fill-rule="nonzero"/></g></svg>