<svg xmlns="http://www.w3.org/2000/svg" xmlns:xlink="http://www.w3.org/1999/xlink" width="1920" zoomAndPan="magnify" viewBox="0 0 1440 809.999993" height="1080" preserveAspectRatio="xMidYMid meet" version="1.0"><defs><clipPath id="id1"><path d="M 667.175781 176.871094 L 1106.675781 176.871094 L 1106.675781 632.871094 L 667.175781 632.871094 Z M 667.175781 176.871094 " clip-rule="nonzero"/></clipPath><clipPath id="id2"><path d="M 669 270 L 1093 270 L 1093 632.871094 L 669 632.871094 Z M 669 270 " clip-rule="nonzero"/></clipPath></defs><rect x="-144" width="1728" fill="rgb(100%, 100%, 100%)" y="-80.999999" height="971.999992" fill-opacity="1"/><rect x="-144" width="1728" fill="rgb(100%, 100%, 100%)" y="-80.999999" height="971.999992" fill-opacity="1"/><rect x="-144" width="1728" fill="rgb(100%, 100%, 100%)" y="-80.999999" height="971.999992" fill-opacity="1"/><rect x="-144" width="1728" fill="rgb(100%, 100%, 100%)" y="-80.999999" height="971.999992" fill-opacity="1"/><path fill="rgb(4.309082%, 62.348938%, 59.21936%)" d="M 898.507812 208.183594 C 891.722656 209.214844 884.554688 211.363281 879.632812 213.847656 C 875.765625 215.800781 805.503906 263.503906 799.0625 268.558594 C 797.210938 270.007812 798.539062 270.039062 861.914062 270.039062 L 926.664062 270.039062 L 926.664062 442.941406 L 836.246094 442.941406 L 836.246094 323.972656 L 827.523438 323.972656 L 827.523438 448.492188 L 926.664062 448.492188 L 926.664062 502.425781 L 827.539062 502.425781 L 827.125 561.511719 L 802.386719 561.910156 L 777.648438 562.304688 L 789.695312 579.824219 C 808.644531 607.375 811.894531 610.894531 824.351562 617.363281 C 835.058594 622.925781 840.507812 624.171875 854.09375 624.160156 C 874.484375 624.148438 878.695312 622.324219 911.59375 599.1875 C 915.738281 596.273438 928.941406 587.179688 940.9375 578.988281 C 952.9375 570.789062 963.273438 563.59375 963.914062 562.996094 C 964.898438 562.070312 962.902344 561.910156 950.625 561.910156 L 936.179688 561.910156 L 936.179688 329.523438 L 1025.167969 329.523438 L 1021.902344 324.367188 L 979.042969 324.164062 L 936.179688 323.957031 L 936.179688 270.039062 L 960.039062 270.039062 C 973.164062 270.039062 983.78125 269.734375 983.636719 269.363281 C 982.363281 266.105469 956.84375 230.480469 952.835938 226.367188 C 938.925781 212.085938 918.289062 205.179688 898.507812 208.183594 M 728.777344 316.992188 C 724.851562 319.769531 716.132812 325.777344 709.394531 330.34375 C 682.242188 348.753906 672.671875 363.988281 672.542969 389.007812 C 672.4375 408.9375 673.898438 411.910156 708.628906 462.355469 L 735.914062 501.996094 L 736.121094 454.164062 C 736.234375 427.859375 736.234375 385.097656 736.121094 359.136719 L 735.914062 311.941406 L 728.777344 316.992188 M 1026.597656 425.691406 L 1026.597656 519.796875 L 1046.226562 506.292969 C 1071.695312 488.777344 1077.699219 482.871094 1083.855469 469.296875 C 1093.777344 447.417969 1090.84375 424.4375 1075.253906 401.886719 C 1065.015625 387.078125 1062.683594 383.691406 1045.390625 358.472656 C 1035.816406 344.515625 1027.671875 332.753906 1027.292969 332.339844 C 1026.894531 331.90625 1026.597656 371.851562 1026.597656 425.691406 " fill-opacity="1" fill-rule="evenodd"/><g clip-path="url(#id1)"><path fill="rgb(100%, 100%, 100%)" d="M 405.578125 417.5625 L 405.578125 893.4375 L 1357.328125 893.4375 L 1357.328125 -58.3125 L 405.578125 -58.3125 L 405.578125 417.5625 M 884.617188 207.394531 C 890.042969 208.933594 890.996094 208.988281 895.71875 208.042969 C 917.851562 203.621094 942.691406 212.542969 956.675781 229.953125 C 960.617188 234.855469 983.667969 268.070312 984.339844 269.8125 C 984.589844 270.464844 983.84375 270.746094 982.058594 270.683594 C 980.597656 270.632812 969.679688 270.644531 957.792969 270.710938 L 936.179688 270.832031 L 936.179688 323.972656 L 1025.804688 323.972656 L 1025.804688 321.128906 C 1025.804688 319.566406 1026.125 318.40625 1026.511719 318.550781 C 1028.140625 319.160156 1071.710938 355.828125 1075.011719 359.371094 C 1090.375 375.851562 1095.894531 399.59375 1089.289062 420.8125 C 1087.882812 425.335938 1087.863281 426.015625 1088.988281 431.320312 C 1093.296875 451.625 1085.113281 475.941406 1069.214844 490.097656 C 1064.082031 494.664062 1027.992188 519.875 1026.585938 519.875 C 1026.050781 519.875 1025.855469 488.472656 1025.992188 425.097656 L 1026.199219 330.316406 L 936.179688 330.316406 L 936.179688 561.117188 L 957.59375 561.117188 C 976.226562 561.117188 981.464844 561.546875 978.375 562.835938 C 978.023438 562.980469 969.121094 573.449219 958.59375 586.097656 C 937.445312 611.511719 933.152344 615.554688 921.507812 621.042969 C 908.230469 627.304688 892.421875 628.765625 878.035156 625.066406 C 871.640625 623.421875 870.632812 623.355469 866.140625 624.296875 C 846.273438 628.460938 823.46875 621.257812 808.757812 606.175781 C 804.847656 602.167969 776.761719 562.949219 776.761719 561.5 C 776.761719 561.285156 788 561.117188 801.738281 561.117188 L 826.710938 561.117188 L 826.917969 531.574219 C 827.121094 502.671875 827.160156 502.027344 828.710938 501.914062 C 829.585938 501.851562 851.980469 501.761719 878.480469 501.71875 L 926.664062 501.632812 L 926.664062 448.492188 L 826.730469 448.492188 L 826.730469 323.972656 L 837.039062 323.972656 L 837.039062 442.941406 L 926.664062 442.941406 L 926.664062 270.832031 L 862.222656 270.78125 C 826.78125 270.75 794.65625 270.773438 790.839844 270.828125 C 784.46875 270.917969 781.339844 269.679688 784.523438 268.320312 C 784.863281 268.175781 793.027344 258.597656 802.660156 247.039062 C 821.394531 224.570312 825.269531 220.472656 832.589844 215.40625 C 846.238281 205.953125 867.804688 202.632812 884.617188 207.394531 M 737.105469 413.199219 C 737.105469 469.253906 736.945312 515.113281 736.75 515.113281 C 735.394531 515.113281 687.207031 473.722656 684.300781 470.0625 C 671.054688 453.378906 666.742188 432.894531 672.191406 412.570312 C 673.65625 407.101562 673.742188 405.832031 672.90625 401.601562 C 667.34375 373.308594 678.515625 350.898438 708.394531 330.433594 C 714.808594 326.046875 723.625 319.957031 727.984375 316.910156 C 732.347656 313.859375 736.183594 311.34375 736.511719 311.320312 C 736.839844 311.300781 737.105469 357.144531 737.105469 413.199219 M 969.890625 680.875 C 1064.65625 682.90625 1109.660156 686.90625 1084.933594 691.101562 C 1028.382812 700.695312 669.691406 698.734375 669.691406 688.835938 C 669.691406 682.621094 840.21875 678.101562 969.890625 680.875 " fill-opacity="1" fill-rule="evenodd"/></g><path fill="rgb(15.689087%, 15.289307%, 22.749329%)" d="M 853.695312 206.980469 C 847.871094 208.28125 839.777344 211.492188 835.058594 214.371094 C 826.800781 219.402344 822.4375 223.847656 803.570312 246.441406 L 783.867188 270.039062 L 790.519531 270.039062 C 795.8125 270.039062 797.554688 269.738281 799.0625 268.558594 C 818.328125 253.460938 884.097656 210.554688 887.976562 210.554688 C 890.859375 210.554688 889.242188 209.148438 884.828125 207.8125 C 878.496094 205.902344 860.644531 205.421875 853.695312 206.980469 M 1026.597656 321.546875 C 1026.597656 323.722656 1026.347656 323.972656 1024.171875 323.972656 L 1021.746094 323.972656 L 1023.179688 326.441406 C 1023.96875 327.796875 1025.058594 329.082031 1025.605469 329.300781 C 1026.152344 329.515625 1026.597656 330.03125 1026.597656 330.441406 C 1026.597656 331.132812 1043.65625 356.179688 1075.226562 401.851562 C 1080.476562 409.441406 1086.875 421.511719 1086.875 423.824219 C 1086.875 427.101562 1088.691406 422.601562 1090.074219 415.898438 C 1094.277344 395.523438 1088.476562 374.105469 1074.824219 359.601562 C 1071.871094 356.464844 1030.3125 321.378906 1027.589844 319.722656 C 1026.878906 319.292969 1026.597656 319.8125 1026.597656 321.546875 M 673.699219 409.234375 C 665.730469 428.652344 671.925781 456.820312 687.8125 473.351562 C 690.9375 476.605469 735.710938 514.316406 736.457031 514.324219 C 736.597656 514.324219 736.589844 511.632812 736.449219 508.34375 L 736.183594 502.363281 L 708.777344 462.5625 C 682.878906 424.949219 676.492188 414.804688 675.21875 409.234375 L 674.675781 406.855469 L 673.699219 409.234375 M 971.496094 561.75 C 967.742188 561.886719 964.683594 562.40625 963.960938 563.023438 C 963.296875 563.597656 952.9375 570.777344 940.9375 578.976562 C 928.941406 587.175781 915.738281 596.273438 911.59375 599.1875 C 890.226562 614.214844 882.421875 619.019531 875.546875 621.394531 L 871.539062 622.78125 L 875.902344 624.046875 C 896.171875 629.953125 918.335938 625.71875 934.199219 612.910156 C 938.328125 609.574219 978.976562 562.164062 978.121094 561.683594 C 977.957031 561.589844 974.972656 561.617188 971.496094 561.75 " fill-opacity="1" fill-rule="evenodd"/><g clip-path="url(#id2)"><path fill="rgb(98.429871%, 98.429871%, 98.429871%)" d="M 787.667969 270.621094 C 789.519531 270.785156 792.554688 270.785156 794.410156 270.621094 C 796.265625 270.453125 794.746094 270.316406 791.039062 270.316406 C 787.332031 270.316406 785.8125 270.453125 787.667969 270.621094 M 799.5625 270.597656 C 800.546875 270.789062 802.152344 270.789062 803.132812 270.597656 C 804.117188 270.410156 803.3125 270.257812 801.347656 270.257812 C 799.386719 270.257812 798.582031 270.410156 799.5625 270.597656 M 835.253906 270.632812 C 851.941406 270.753906 879.246094 270.753906 895.929688 270.632812 C 912.617188 270.515625 898.960938 270.417969 865.589844 270.417969 C 832.222656 270.417969 818.570312 270.515625 835.253906 270.632812 M 947.878906 270.632812 C 953.660156 270.765625 963.117188 270.765625 968.898438 270.632812 C 974.675781 270.496094 969.949219 270.386719 958.386719 270.386719 C 946.828125 270.386719 942.097656 270.496094 947.878906 270.632812 M 1026.003906 321.195312 C 1026.011719 322.941406 1026.175781 323.5625 1026.363281 322.574219 C 1026.554688 321.589844 1026.546875 320.160156 1026.347656 319.402344 C 1026.148438 318.644531 1025.996094 319.453125 1026.003906 321.195312 M 1091.847656 402.492188 C 1091.847656 404.457031 1092.003906 405.257812 1092.195312 404.277344 C 1092.382812 403.292969 1092.382812 401.6875 1092.195312 400.707031 C 1092.003906 399.726562 1091.847656 400.527344 1091.847656 402.492188 M 787.074219 680.941406 C 716.121094 682.453125 669.691406 685.574219 669.691406 688.835938 C 669.691406 699.679688 1074.066406 700.363281 1090.878906 689.550781 C 1101.273438 682.863281 927.65625 677.945312 787.074219 680.941406 " fill-opacity="1" fill-rule="evenodd"/></g><path fill="rgb(62.348938%, 84.309387%, 83.529663%)" d="M 864.582031 205.574219 C 865.992188 205.75 868.488281 205.753906 870.136719 205.582031 C 871.78125 205.410156 870.628906 205.269531 867.574219 205.261719 C 864.519531 205.261719 863.175781 205.402344 864.582031 205.574219 M 905.84375 207.148438 C 906.824219 207.339844 908.433594 207.339844 909.414062 207.148438 C 910.394531 206.960938 909.589844 206.804688 907.628906 206.804688 C 905.664062 206.804688 904.863281 206.960938 905.84375 207.148438 M 898.308594 207.929688 C 899.070312 208.128906 900.320312 208.128906 901.085938 207.929688 C 901.847656 207.730469 901.222656 207.566406 899.699219 207.566406 C 898.171875 207.566406 897.542969 207.730469 898.308594 207.929688 M 735.046875 312.195312 C 734.699219 312.761719 734.832031 312.898438 735.394531 312.550781 C 736.078125 312.125 736.359375 337.074219 736.511719 412.953125 L 736.714844 513.925781 L 736.910156 412.605469 C 737.03125 349.683594 736.824219 311.28125 736.359375 311.28125 C 735.949219 311.28125 735.359375 311.695312 735.046875 312.195312 M 719.855469 322.464844 C 718 323.777344 716.484375 325.027344 716.484375 325.242188 C 716.484375 325.457031 718.09375 324.53125 720.054688 323.179688 C 722.019531 321.828125 723.625 320.5625 723.625 320.367188 C 723.625 319.820312 723.472656 319.902344 719.855469 322.464844 M 827.109375 386.230469 C 827.109375 420.695312 827.207031 434.675781 827.324219 417.304688 C 827.441406 399.933594 827.441406 371.738281 827.324219 354.648438 C 827.207031 337.554688 827.109375 351.769531 827.109375 386.230469 M 836.621094 383.851562 C 836.621094 416.570312 836.71875 430.070312 836.839844 413.851562 C 836.960938 397.636719 836.960938 370.867188 836.839844 354.367188 C 836.722656 337.867188 836.621094 351.136719 836.621094 383.851562 M 958.246094 330.117188 C 970.601562 330.242188 990.585938 330.238281 1002.660156 330.117188 C 1014.734375 329.996094 1004.628906 329.894531 980.199219 329.894531 C 955.769531 329.894531 945.890625 329.996094 958.246094 330.117188 M 1026.1875 425.097656 C 1026.1875 476.132812 1026.28125 496.894531 1026.398438 471.234375 C 1026.511719 445.574219 1026.511719 403.816406 1026.398438 378.4375 C 1026.28125 353.0625 1026.1875 374.058594 1026.1875 425.097656 M 689.882812 344.792969 L 685.949219 348.957031 L 690.113281 345.019531 C 692.402344 342.855469 694.277344 340.980469 694.277344 340.855469 C 694.277344 340.265625 693.542969 340.921875 689.882812 344.792969 M 672.253906 381.871094 C 672.253906 383.398438 672.417969 384.019531 672.617188 383.257812 C 672.816406 382.492188 672.816406 381.246094 672.617188 380.484375 C 672.417969 379.71875 672.253906 380.34375 672.253906 381.871094 M 672.253906 396.9375 C 672.253906 398.464844 672.417969 399.089844 672.617188 398.328125 C 672.816406 397.5625 672.816406 396.316406 672.617188 395.550781 C 672.417969 394.789062 672.253906 395.414062 672.253906 396.9375 M 669.917969 429.855469 C 669.921875 432.035156 670.078125 432.832031 670.257812 431.628906 C 670.441406 430.421875 670.4375 428.636719 670.25 427.660156 C 670.0625 426.6875 669.910156 427.671875 669.917969 429.855469 M 1089.546875 442.941406 C 1089.546875 447.523438 1089.679688 449.394531 1089.839844 447.105469 C 1089.996094 444.8125 1089.996094 441.066406 1089.839844 438.777344 C 1089.679688 436.484375 1089.546875 438.359375 1089.546875 442.941406 M 686.347656 472.535156 C 686.347656 472.671875 687.503906 473.832031 688.921875 475.113281 L 691.503906 477.441406 L 689.171875 474.863281 C 687 472.460938 686.347656 471.921875 686.347656 472.535156 M 1070.984375 487.949219 L 1066.648438 492.511719 L 1071.210938 488.175781 C 1075.449219 484.148438 1076.132812 483.390625 1075.546875 483.390625 C 1075.421875 483.390625 1073.367188 485.441406 1070.984375 487.949219 M 1054.753906 500.511719 L 1052.371094 502.558594 L 1054.953125 500.851562 C 1056.367188 499.914062 1057.527344 498.988281 1057.527344 498.800781 C 1057.527344 498.207031 1057.191406 498.414062 1054.753906 500.511719 M 827.257812 502.160156 C 826.96875 502.453125 826.730469 515.835938 826.730469 531.902344 L 826.730469 561.117188 L 802.1875 561.117188 C 779.464844 561.117188 774.957031 561.492188 777.664062 563.167969 C 778.238281 563.523438 778.378906 563.398438 778.035156 562.835938 C 777.621094 562.167969 783.960938 561.878906 802.300781 561.722656 L 827.125 561.511719 L 827.332031 532.207031 C 827.492188 509.976562 827.777344 502.75 828.523438 502.28125 C 829.113281 501.90625 829.164062 501.652344 828.648438 501.644531 C 828.171875 501.636719 827.546875 501.867188 827.257812 502.160156 M 854.742188 502.226562 C 868.191406 502.347656 889.960938 502.347656 903.125 502.226562 C 916.289062 502.105469 905.289062 502.003906 878.679688 502.003906 C 852.070312 502.003906 841.296875 502.105469 854.742188 502.226562 M 1042.0625 509.234375 L 1039.683594 511.28125 L 1042.261719 509.574219 C 1043.679688 508.636719 1044.839844 507.714844 1044.839844 507.527344 C 1044.839844 506.933594 1044.503906 507.140625 1042.0625 509.234375 M 946.292969 561.707031 C 952.074219 561.84375 961.53125 561.84375 967.308594 561.707031 C 973.089844 561.574219 968.363281 561.464844 956.800781 561.464844 C 945.242188 561.464844 940.511719 561.574219 946.292969 561.707031 M 850.324219 625.152344 C 852.613281 625.3125 856.363281 625.3125 858.652344 625.152344 C 860.941406 624.988281 859.070312 624.859375 854.488281 624.859375 C 849.910156 624.859375 848.035156 624.988281 850.324219 625.152344 " fill-opacity="1" fill-rule="evenodd"/></svg>